<svg width="512" height="512" viewBox="0 0 512 512" fill="none" xmlns="http://www.w3.org/2000/svg">
<rect width="512" height="512" rx="128" fill="white"/>
<path d="M150.68 337.003C147.827 337.003 145.362 336.395 143.288 335.178C141.213 333.961 140.175 332.516 140.175 330.843V181.161C140.175 179.487 141.213 178.042 143.288 176.825C145.362 175.608 147.827 175 150.68 175H218.769C221.622 175 224.087 175.608 226.161 176.825C228.236 178.042 229.274 179.487 229.274 181.161V255.089L263.513 222.232C264.032 221.623 265.199 220.863 267.015 219.95C268.831 218.885 271.424 218.353 274.796 218.353H353.39C355.984 218.353 358.189 218.885 360.005 219.95C361.821 221.015 362.728 222.308 362.728 223.829C362.728 224.438 362.469 225.122 361.95 225.883C361.691 226.491 361.302 226.948 360.783 227.252L307.479 271.746L370.51 328.561C371.548 329.474 372.066 330.462 372.066 331.527C372.066 333.049 371.159 334.341 369.343 335.406C367.527 336.471 365.322 337.003 362.728 337.003H281.022C277.131 337.003 274.278 336.471 272.462 335.406C270.646 334.189 269.479 333.429 268.96 333.125L229.274 294.335V330.843C229.274 332.516 228.236 333.961 226.161 335.178C224.087 336.395 221.622 337.003 218.769 337.003H150.68Z" fill="#4286F5" fill-opacity="0.52"/>
<path d="M149.419 337C146.86 337 144.651 336.383 142.791 335.149C140.93 333.914 140 332.448 140 330.751V181.249C140 179.551 140.93 178.086 142.791 176.851C144.651 175.617 146.86 175 149.419 175H220.581C223.139 175 225.349 175.617 227.209 176.851C229.07 178.086 230 179.551 230 181.249V330.751C230 332.448 229.07 333.914 227.209 335.149C225.349 336.383 223.139 337 220.581 337H149.419Z" fill="#4286F5"/>
</svg>
