<svg width="18" height="21" viewBox="0 0 18 21" fill="none" xmlns="http://www.w3.org/2000/svg">
<path d="M4 5C3.38333 5 2.89167 5.175 2.525 5.525C2.175 5.875 2 6.36667 2 7H16C16 6.36667 15.825 5.875 15.475 5.525C15.125 5.175 14.6333 5 14 5H4ZM14 3C14.7333 3 15.4 3.175 16 3.525C16.6167 3.875 17.1 4.35833 17.45 4.975C17.8167 5.59167 18 6.26667 18 7V9H0V7C0 6.26667 0.175 5.59167 0.525 4.975C0.891667 4.35833 1.375 3.875 1.975 3.525C2.59167 3.175 3.26667 3 4 3H14ZM2 17C2 17.6167 2.175 18.1083 2.525 18.475C2.89167 18.825 3.38333 19 4 19H14C14.6333 19 15.125 18.825 15.475 18.475C15.825 18.1083 16 17.6167 16 17V9H2V17ZM18 7V17C18 17.7333 17.825 18.4083 17.475 19.025C17.125 19.625 16.6417 20.1083 16.025 20.475C15.4083 20.825 14.7333 21 14 21H4C3.26667 21 2.59167 20.825 1.975 20.475C1.375 20.1083 0.891667 19.625 0.525 19.025C0.175 18.4083 0 17.7333 0 17V7H18ZM3 2C3 1.58333 3.16667 1.3 3.5 1.15C3.83333 0.983332 4.16667 0.983332 4.5 1.15C4.83333 1.3 5 1.58333 5 2V4H3V2ZM13 4V2C13 1.58333 13.1667 1.3 13.5 1.15C13.8333 0.983332 14.1667 0.983332 14.5 1.15C14.8333 1.3 15 1.58333 15 2V4H13ZM10.5 16C10.5 16.4167 10.35 16.775 10.05 17.075C9.76667 17.3583 9.41667 17.5 9 17.5C8.58333 17.5 8.225 17.3583 7.925 17.075C7.64167 16.775 7.5 16.4167 7.5 16C7.5 15.5833 7.64167 15.2333 7.925 14.95C8.225 14.65 8.58333 14.5 9 14.5C9.41667 14.5 9.76667 14.65 10.05 14.95C10.35 15.2333 10.5 15.5833 10.5 16ZM14.5 16C14.5 16.4167 14.35 16.775 14.05 17.075C13.7667 17.3583 13.4167 17.5 13 17.5C12.5833 17.5 12.225 17.3583 11.925 17.075C11.6417 16.775 11.5 16.4167 11.5 16C11.5 15.5833 11.6417 15.2333 11.925 14.95C12.225 14.65 12.5833 14.5 13 14.5C13.4167 14.5 13.7667 14.65 14.05 14.95C14.35 15.2333 14.5 15.5833 14.5 16ZM6.5 16C6.5 16.4167 6.35 16.775 6.05 17.075C5.76667 17.3583 5.41667 17.5 5 17.5C4.58333 17.5 4.225 17.3583 3.925 17.075C3.64167 16.775 3.5 16.4167 3.5 16C3.5 15.5833 3.64167 15.2333 3.925 14.95C4.225 14.65 4.58333 14.5 5 14.5C5.41667 14.5 5.76667 14.65 6.05 14.95C6.35 15.2333 6.5 15.5833 6.5 16ZM10.5 12C10.5 12.4167 10.35 12.775 10.05 13.075C9.76667 13.3583 9.41667 13.5 9 13.5C8.58333 13.5 8.225 13.3583 7.925 13.075C7.64167 12.775 7.5 12.4167 7.5 12C7.5 11.5833 7.64167 11.2333 7.925 10.95C8.225 10.65 8.58333 10.5 9 10.5C9.41667 10.5 9.76667 10.65 10.05 10.95C10.35 11.2333 10.5 11.5833 10.5 12ZM14.5 12C14.5 12.4167 14.35 12.775 14.05 13.075C13.7667 13.3583 13.4167 13.5 13 13.5C12.5833 13.5 12.225 13.3583 11.925 13.075C11.6417 12.775 11.5 12.4167 11.5 12C11.5 11.5833 11.6417 11.2333 11.925 10.95C12.225 10.65 12.5833 10.5 13 10.5C13.4167 10.5 13.7667 10.65 14.05 10.95C14.35 11.2333 14.5 11.5833 14.5 12ZM6.5 12C6.5 12.4167 6.35 12.775 6.05 13.075C5.76667 13.3583 5.41667 13.5 5 13.5C4.58333 13.5 4.225 13.3583 3.925 13.075C3.64167 12.775 3.5 12.4167 3.5 12C3.5 11.5833 3.64167 11.2333 3.925 10.95C4.225 10.65 4.58333 10.5 5 10.5C5.41667 10.5 5.76667 10.65 6.05 10.95C6.35 11.2333 6.5 11.5833 6.5 12Z" fill="#ED6E13"/>
</svg>
