<svg width="18" height="18" viewBox="0 0 18 18" fill="none" xmlns="http://www.w3.org/2000/svg">
<path d="M2.7 16.7C2.41667 16.9833 2.1 17.0667 1.75 16.95C1.4 16.8333 1.15833 16.6083 1.025 16.275C0.908334 15.925 1 15.6 1.3 15.3L15.3 1.3C15.5833 1.01667 15.9 0.933332 16.25 1.05C16.6 1.16667 16.8333 1.4 16.95 1.75C17.0833 2.08333 17 2.4 16.7 2.7L2.7 16.7ZM1.3 2.7C1 2.4 0.908334 2.08333 1.025 1.75C1.14167 1.4 1.375 1.16667 1.725 1.05C2.09167 0.933332 2.41667 1.01667 2.7 1.3L16.7 15.3C16.9833 15.5833 17.0667 15.9 16.95 16.25C16.8333 16.6 16.6 16.8417 16.25 16.975C15.9167 17.0917 15.6 17 15.3 16.7L1.3 2.7Z" fill="#5096FE"/>
</svg>
