<svg width="19" height="18" viewBox="0 0 19 18" fill="none" xmlns="http://www.w3.org/2000/svg">
<path d="M15 -1.43051e-06C15.7167 -1.43051e-06 16.3833 0.183332 17 0.549999C17.6167 0.899999 18.1 1.38333 18.45 2C18.8167 2.61667 19 3.28333 19 4V14C19 14.7167 18.8167 15.3833 18.45 16C18.1 16.6167 17.6167 17.1083 17 17.475C16.3833 17.825 15.7167 18 15 18H14C13.5833 18 13.2917 17.8333 13.125 17.5C12.975 17.1667 12.975 16.8333 13.125 16.5C13.2917 16.1667 13.5833 16 14 16H15C15.6167 16 16.1 15.825 16.45 15.475C16.8167 15.1083 17 14.6167 17 14V4C17 3.38333 16.8167 2.9 16.45 2.55C16.1 2.18333 15.6167 2 15 2H14C13.7 2 13.4583 1.9 13.275 1.7C13.1083 1.5 13.025 1.26667 13.025 0.999999C13.025 0.733333 13.1083 0.499999 13.275 0.299998C13.4583 0.0999985 13.7 -1.43051e-06 14 -1.43051e-06H15ZM6.7 12.3C6.98333 12.5833 7.06667 12.9083 6.95 13.275C6.83333 13.625 6.6 13.8583 6.25 13.975C5.91667 14.0917 5.6 14 5.3 13.7L1.3 9.725C1.08333 9.50833 0.975 9.26667 0.975 9C0.975 8.73333 1.08333 8.49167 1.3 8.275L5.3 4.3C5.58333 4.01667 5.9 3.93333 6.25 4.05C6.61667 4.16667 6.85833 4.4 6.975 4.75C7.09167 5.08333 7 5.4 6.7 5.7L3.425 9L6.7 12.3ZM2 10V8H14C14.4167 8 14.7 8.16667 14.85 8.5C15.0167 8.83333 15.0167 9.16667 14.85 9.5C14.7 9.83333 14.4167 10 14 10H2Z" fill="#B9BDC1"/>
</svg>
