<svg width="20" height="20" viewBox="0 0 20 20" fill="none" xmlns="http://www.w3.org/2000/svg">
<path d="M9 17.5C7.46667 17.5 6.04167 17.125 4.725 16.375C3.425 15.6083 2.39167 14.575 1.625 13.275C0.875 11.9583 0.5 10.5333 0.5 9C0.5 7.46667 0.875 6.05 1.625 4.75C2.39167 3.43333 3.425 2.4 4.725 1.65C6.04167 0.883332 7.46667 0.499999 9 0.499999C10.5333 0.499999 11.95 0.883332 13.25 1.65C14.5667 2.4 15.6 3.43333 16.35 4.75C17.1167 6.05 17.5 7.46667 17.5 9C17.5 10.5333 17.1167 11.9583 16.35 13.275C15.6 14.575 14.5667 15.6083 13.25 16.375C11.95 17.125 10.5333 17.5 9 17.5ZM9 15.5C10.2333 15.5 11.3417 15.225 12.325 14.675C13.325 14.1083 14.1 13.3333 14.65 12.35C15.2167 11.35 15.5 10.2333 15.5 9C15.5 7.76667 15.2167 6.65833 14.65 5.675C14.1 4.675 13.325 3.9 12.325 3.35C11.3417 2.78333 10.2333 2.5 9 2.5C7.76667 2.5 6.65 2.78333 5.65 3.35C4.66667 3.9 3.89167 4.675 3.325 5.675C2.775 6.65833 2.5 7.76667 2.5 9C2.5 10.2333 2.775 11.35 3.325 12.35C3.89167 13.3333 4.66667 14.1083 5.65 14.675C6.65 15.225 7.76667 15.5 9 15.5ZM13.075 14.5L14.5 13.075L18.7 17.3C18.9833 17.5833 19.0667 17.9 18.95 18.25C18.8333 18.6 18.6 18.8417 18.25 18.975C17.9167 19.0917 17.6 19 17.3 18.7L13.075 14.5Z" fill="#B9BDC1"/>
</svg>
