<svg width="787" height="489" viewBox="0 0 787 489" fill="none" xmlns="http://www.w3.org/2000/svg">
<path d="M94.9041 200.245C71.3605 200.245 52.3624 195.117 37.9099 184.86C23.4574 174.487 14.4829 159.626 10.9863 140.279L54.169 133.46C56.5001 143.484 61.1622 151.06 68.1553 156.188C75.265 161.2 84.4727 163.706 95.7782 163.706C106.035 163.706 114.135 161.724 120.079 157.761C126.14 153.799 129.171 148.262 129.171 141.153C129.171 139.055 128.937 137.19 128.471 135.558C128.005 133.81 127.131 132.236 125.849 130.838C124.683 129.439 123.052 128.157 120.954 126.992C118.972 125.71 116.35 124.486 113.086 123.32C106.676 120.989 96.1862 117.901 81.6171 114.054C70.6612 111.257 61.1622 108.227 53.12 104.963C45.0779 101.7 38.3761 97.9118 33.0147 93.5993C27.6533 89.2869 23.6322 84.3334 20.9515 78.7389C18.3874 73.0278 17.1053 66.326 17.1053 58.6336C17.1053 49.8921 18.8536 42.0248 22.3502 35.0317C25.9633 27.922 31.0333 21.8612 37.5603 16.8495C44.0872 11.7212 51.9545 7.81667 61.1622 5.13596C70.3698 2.33871 80.5681 0.940084 91.7572 0.940084C102.597 0.940084 112.562 2.28044 121.653 4.96115C130.861 7.5253 138.903 11.255 145.779 16.1502C152.656 20.9288 158.25 26.7565 162.563 33.6331C166.992 40.5097 169.789 48.2021 170.955 56.7105L127.947 64.4029C126.781 56.0111 122.877 49.4259 116.233 44.6473C109.59 39.7521 100.965 37.3045 90.3586 37.3045C85.813 37.3045 81.6171 37.7707 77.7709 38.7031C73.9247 39.6355 70.6029 40.9759 67.8056 42.7241C65.1249 44.4724 62.9687 46.5704 61.337 49.018C59.8218 51.349 59.0642 53.9132 59.0642 56.7105C59.0642 59.2746 59.647 61.4891 60.8125 63.3539C61.978 65.1022 63.6098 66.734 65.7077 68.2492C67.8056 69.6478 70.3698 70.9299 73.4002 72.0954C76.4305 73.2609 79.8106 74.4264 83.5402 75.592C87.7361 76.874 92.6896 78.3892 98.4007 80.1375C104.112 81.7692 110.58 83.5758 117.807 85.5572C127.714 88.2379 136.105 91.2683 142.982 94.6483C149.859 98.0283 155.453 101.875 159.766 106.187C164.195 110.383 167.4 115.22 169.381 120.698C171.363 126.176 172.353 132.353 172.353 139.23C172.353 148.67 170.547 157.179 166.934 164.755C163.437 172.331 158.309 178.741 151.549 183.986C144.905 189.231 136.805 193.252 127.247 196.049C117.69 198.846 106.909 200.245 94.9041 200.245ZM295.788 82.2354C295.788 75.9416 295.088 70.2305 293.69 65.1022C292.291 59.8574 290.135 55.4284 287.221 51.8152C284.307 48.2021 280.578 45.4049 276.032 43.4235C271.603 41.4421 266.358 40.4514 260.298 40.4514C254.237 40.4514 248.934 41.4421 244.388 43.4235C239.843 45.4049 236.113 48.2021 233.199 51.8152C230.285 55.4284 228.071 59.8574 226.556 65.1022C225.157 70.2305 224.458 75.9416 224.458 82.2354V195H182.324V6.18494H224.458V28.9127C226.439 24.9499 228.828 21.2785 231.626 17.8985C234.423 14.5184 237.686 11.6046 241.416 9.15702C245.262 6.59287 249.633 4.61149 254.528 3.21286C259.423 1.69768 264.901 0.940084 270.962 0.940084C299.284 0.940084 318.632 10.9053 329.005 30.8358C331.569 26.5233 334.6 22.5606 338.096 18.9474C341.593 15.2178 345.556 12.0708 349.985 9.50668C354.414 6.82597 359.251 4.72803 364.496 3.21286C369.857 1.69768 375.626 0.940084 381.804 0.940084C404.415 0.940084 421.665 7.05909 433.553 19.2971C445.558 31.4186 451.56 49.4842 451.56 73.494V195H409.426V82.2354C409.426 75.9416 408.727 70.2305 407.329 65.1022C405.93 59.8574 403.774 55.4284 400.86 51.8152C397.946 48.2021 394.275 45.4049 389.846 43.4235C385.417 41.4421 380.114 40.4514 373.936 40.4514C361.815 40.4514 352.782 44.2393 346.838 51.8152C341.01 59.3912 338.096 69.5312 338.096 82.2354L337.747 82.0606V195H295.788V82.2354ZM575.309 41.85C572.628 41.2672 569.598 40.9176 566.218 40.801C562.954 40.5679 559.341 40.4514 555.378 40.4514C541.159 40.4514 530.203 44.8221 522.511 53.5635C514.818 62.1884 510.972 74.6595 510.972 90.9769V195H468.838V6.18494H510.972V30.8358C513.303 26.5233 516.1 22.5606 519.364 18.9474C522.744 15.3343 526.707 12.1874 531.252 9.50668C535.798 6.82597 540.926 4.72803 546.637 3.21286C552.465 1.69768 559.05 0.940084 566.393 0.940084C567.908 0.940084 569.365 0.998356 570.763 1.1149C572.279 1.1149 573.794 1.17318 575.309 1.28974V41.85ZM755.71 278.918H713.577V169.65C707.866 179.324 700.29 186.841 690.849 192.203C681.408 197.564 669.636 200.245 655.533 200.245C643.179 200.245 631.757 197.856 621.267 193.077C610.894 188.182 601.861 181.363 594.169 172.622C586.593 163.764 580.648 153.216 576.336 140.978C572.14 128.74 570.042 115.278 570.042 100.592C570.042 86.0234 572.14 72.6199 576.336 60.3819C580.648 48.1438 586.593 37.6541 594.169 28.9127C601.744 20.0547 610.777 13.1781 621.267 8.28288C631.757 3.38768 643.179 0.940084 655.533 0.940084C669.636 0.940084 681.408 3.62079 690.849 8.98221C700.29 14.3436 707.866 21.8613 713.577 31.5351V6.18494H755.71V278.918ZM664.275 160.734C672.434 160.734 679.543 159.335 685.604 156.538C691.781 153.74 696.91 149.719 700.989 144.474C705.185 139.23 708.332 132.936 710.43 125.593C712.528 118.134 713.577 109.8 713.577 100.592C713.577 91.6179 712.586 83.4593 710.605 76.1164C708.623 68.7736 705.593 62.4798 701.513 57.2349C697.551 51.8735 692.481 47.7359 686.303 44.8221C680.126 41.9083 672.783 40.4514 664.275 40.4514C656.116 40.4514 648.89 41.9083 642.596 44.8221C636.419 47.6194 631.232 51.6404 627.036 56.8853C622.957 62.1301 619.868 68.4823 617.77 75.9416C615.673 83.2844 614.624 91.5014 614.624 100.592C614.624 109.45 615.614 117.609 617.596 125.068C619.694 132.411 622.782 138.763 626.862 144.125C631.057 149.37 636.244 153.449 642.421 156.363C648.715 159.277 656 160.734 664.275 160.734ZM0.496575 300.185H34.763V237.247H76.7219V300.185H132.143V339.347H76.7219V427.111C76.7219 435.619 78.645 441.855 82.4913 445.817C86.454 449.664 92.6896 451.587 101.198 451.587H132.143V489H92.4565C74.1578 489 59.9384 484.338 49.7983 475.014C39.7748 465.689 34.763 452.577 34.763 435.677V339.347H0.496575V300.185ZM220.822 294.94C247.862 294.94 267.909 301.758 280.963 315.395C294.133 328.915 300.719 349.603 300.719 377.459V489H258.76V463.65C246.288 484.047 225.95 494.245 197.744 494.245C188.187 494.245 179.504 492.905 171.695 490.224C163.886 487.543 157.184 483.755 151.59 478.86C146.112 473.848 141.857 467.846 138.827 460.853C135.797 453.859 134.282 446.109 134.282 437.6C134.282 419.068 140.634 404.674 153.338 394.418C166.159 384.161 184.69 377.518 208.933 374.487L258.585 368.368C258.235 355.78 254.913 346.573 248.62 340.745C242.326 334.918 233.06 332.004 220.822 332.004C209.4 332.004 200.367 334.102 193.723 338.298C187.08 342.494 182.301 349.137 179.387 358.228L141.1 347.913C146.112 330.663 155.436 317.551 169.072 308.577C182.709 299.486 199.959 294.94 220.822 294.94ZM214.878 404.558C201.358 406.189 191.392 409.453 184.982 414.348C178.688 419.127 175.541 425.712 175.541 434.104C175.541 450.771 186.322 459.104 207.884 459.104C213.712 459.104 219.132 458.347 224.144 456.832C229.155 455.316 233.643 453.277 237.605 450.713C241.685 448.032 245.181 444.885 248.095 441.272C251.009 437.542 253.223 433.579 254.739 429.383C256.72 424.838 257.885 420.001 258.235 414.873C258.585 409.744 258.76 405.082 258.76 400.886V399.138L214.878 404.558ZM391.69 494.245C368.146 494.245 349.148 489.117 334.695 478.86C320.243 468.487 311.268 453.626 307.772 434.279L350.954 427.46C353.286 437.484 357.948 445.06 364.941 450.188C372.05 455.2 381.258 457.706 392.564 457.706C402.82 457.706 410.921 455.724 416.865 451.761C422.926 447.799 425.956 442.262 425.956 435.153C425.956 433.055 425.723 431.19 425.257 429.558C424.79 427.81 423.916 426.236 422.634 424.838C421.469 423.439 419.837 422.157 417.739 420.992C415.758 419.71 413.135 418.486 409.872 417.32C403.461 414.989 392.972 411.901 378.403 408.054C367.447 405.257 357.948 402.227 349.905 398.963C341.863 395.7 335.162 391.912 329.8 387.599C324.439 383.287 320.418 378.333 317.737 372.739C315.173 367.028 313.891 360.326 313.891 352.634C313.891 343.892 315.639 336.025 319.136 329.032C322.749 321.922 327.819 315.861 334.346 310.849C340.873 305.721 348.74 301.817 357.948 299.136C367.155 296.339 377.354 294.94 388.543 294.94C399.382 294.94 409.347 296.28 418.438 298.961C427.646 301.525 435.688 305.255 442.565 310.15C449.441 314.929 455.036 320.756 459.348 327.633C463.777 334.51 466.575 342.202 467.74 350.71L424.732 358.403C423.567 350.011 419.662 343.426 413.019 338.647C406.375 333.752 397.75 331.304 387.144 331.304C382.598 331.304 378.403 331.771 374.556 332.703C370.71 333.636 367.388 334.976 364.591 336.724C361.91 338.472 359.754 340.57 358.122 343.018C356.607 345.349 355.85 347.913 355.85 350.71C355.85 353.275 356.432 355.489 357.598 357.354C358.763 359.102 360.395 360.734 362.493 362.249C364.591 363.648 367.155 364.93 370.186 366.095C373.216 367.261 376.596 368.426 380.326 369.592C384.522 370.874 389.475 372.389 395.186 374.138C400.897 375.769 407.366 377.576 414.592 379.557C424.499 382.238 432.891 385.268 439.767 388.648C446.644 392.028 452.239 395.875 456.551 400.187C460.98 404.383 464.185 409.22 466.167 414.698C468.148 420.176 469.139 426.353 469.139 433.23C469.139 442.67 467.332 451.179 463.719 458.755C460.222 466.331 455.094 472.741 448.334 477.986C441.691 483.231 433.59 487.252 424.033 490.049C414.476 492.846 403.694 494.245 391.69 494.245ZM479.109 237.247H521.243V391.096L590.3 300.185H642.924L569.671 394.592L649.218 489H593.447L521.243 397.914V489H479.109V237.247ZM708.621 494.245C685.078 494.245 666.08 489.117 651.627 478.86C637.175 468.487 628.2 453.626 624.703 434.279L667.886 427.46C670.217 437.484 674.879 445.06 681.872 450.188C688.982 455.2 698.19 457.706 709.495 457.706C719.752 457.706 727.852 455.724 733.797 451.761C739.857 447.799 742.888 442.262 742.888 435.153C742.888 433.055 742.655 431.19 742.188 429.558C741.722 427.81 740.848 426.236 739.566 424.838C738.4 423.439 736.769 422.157 734.671 420.992C732.689 419.71 730.067 418.486 726.803 417.32C720.393 414.989 709.903 411.901 695.334 408.054C684.378 405.257 674.879 402.227 666.837 398.963C658.795 395.7 652.093 391.912 646.732 387.599C641.37 383.287 637.349 378.333 634.669 372.739C632.105 367.028 630.822 360.326 630.822 352.634C630.822 343.892 632.571 336.025 636.067 329.032C639.68 321.922 644.75 315.861 651.277 310.849C657.804 305.721 665.672 301.817 674.879 299.136C684.087 296.339 694.285 294.94 705.474 294.94C716.314 294.94 726.279 296.28 735.37 298.961C744.578 301.525 752.62 305.255 759.496 310.15C766.373 314.929 771.968 320.756 776.28 327.633C780.709 334.51 783.506 342.202 784.672 350.71L741.664 358.403C740.498 350.011 736.594 343.426 729.95 338.647C723.307 333.752 714.682 331.304 704.076 331.304C699.53 331.304 695.334 331.771 691.488 332.703C687.642 333.636 684.32 334.976 681.523 336.724C678.842 338.472 676.686 340.57 675.054 343.018C673.539 345.349 672.781 347.913 672.781 350.71C672.781 353.275 673.364 355.489 674.53 357.354C675.695 359.102 677.327 360.734 679.425 362.249C681.523 363.648 684.087 364.93 687.117 366.095C690.148 367.261 693.528 368.426 697.257 369.592C701.453 370.874 706.407 372.389 712.118 374.138C717.829 375.769 724.298 377.576 731.524 379.557C741.431 382.238 749.823 385.268 756.699 388.648C763.576 392.028 769.17 395.875 773.483 400.187C777.912 404.383 781.117 409.22 783.098 414.698C785.08 420.176 786.07 426.353 786.07 433.23C786.07 442.67 784.264 451.179 780.651 458.755C777.154 466.331 772.026 472.741 765.266 477.986C758.622 483.231 750.522 487.252 740.965 490.049C731.407 492.846 720.626 494.245 708.621 494.245Z" fill="white"/>
</svg>
