<svg width="18" height="21" viewBox="0 0 18 21" fill="none" xmlns="http://www.w3.org/2000/svg">
<path d="M9 19C10.3333 19 11.5333 18.7 12.6 18.1C13.6667 17.5 14.5 16.6667 15.1 15.6C15.7 14.5333 16 13.3333 16 12C16 10.6667 15.7 9.46667 15.1 8.4C14.5 7.33333 13.6667 6.5 12.6 5.9C11.5333 5.3 10.3333 5 9 5C7.66667 5 6.46667 5.3 5.4 5.9C4.33333 6.5 3.5 7.33333 2.9 8.4C2.3 9.46667 2 10.6667 2 12C2 13.3333 2.3 14.5333 2.9 15.6C3.5 16.6667 4.33333 17.5 5.4 18.1C6.46667 18.7 7.66667 19 9 19ZM9 21C7.36667 21 5.85833 20.6 4.475 19.8C3.09167 19 2 17.9083 1.2 16.525C0.4 15.1417 0 13.6333 0 12C0 10.3667 0.4 8.85833 1.2 7.475C2 6.09167 3.09167 5 4.475 4.2C5.85833 3.4 7.36667 3 9 3C10.6333 3 12.1417 3.4 13.525 4.2C14.9083 5 16 6.09167 16.8 7.475C17.6 8.85833 18 10.3667 18 12C18 13.6333 17.6 15.1417 16.8 16.525C16 17.9083 14.9083 19 13.525 19.8C12.1417 20.6 10.6333 21 9 21ZM12 -9.53674e-07C12.4167 -9.53674e-07 12.7 0.166666 12.85 0.499999C13.0167 0.833333 13.0167 1.16667 12.85 1.5C12.7 1.83333 12.4167 2 12 2H6C5.58333 2 5.29167 1.83333 5.125 1.5C4.975 1.16667 4.975 0.833333 5.125 0.499999C5.29167 0.166666 5.58333 -9.53674e-07 6 -9.53674e-07H12ZM8 8.5C8 8.08333 8.16667 7.8 8.5 7.65C8.83333 7.48333 9.16667 7.48333 9.5 7.65C9.83333 7.8 10 8.08333 10 8.5V12C10 12.4167 9.83333 12.7083 9.5 12.875C9.16667 13.025 8.83333 13.025 8.5 12.875C8.16667 12.7083 8 12.4167 8 12V8.5ZM10.5 15C10.5 15.4167 10.35 15.775 10.05 16.075C9.76667 16.3583 9.41667 16.5 9 16.5C8.58333 16.5 8.225 16.3583 7.925 16.075C7.64167 15.775 7.5 15.4167 7.5 15C7.5 14.5833 7.64167 14.2333 7.925 13.95C8.225 13.65 8.58333 13.5 9 13.5C9.41667 13.5 9.76667 13.65 10.05 13.95C10.35 14.2333 10.5 14.5833 10.5 15Z" fill="#B9BDC1"/>
</svg>
